<svg width="44" height="44" viewBox="0 0 44 44" fill="none" xmlns="http://www.w3.org/2000/svg">
<path d="M13.2775 20.3182C14.0998 17.2499 17.2537 14.096 20.322 13.2738L39.4509 8.14741C42.5192 7.32514 44.34 9.14589 43.5177 12.2142L38.3913 31.3431C37.5691 34.4114 34.4152 37.5653 31.3469 38.3876L12.2179 43.5139C9.14964 44.3362 7.32889 42.5155 8.15116 39.4472L13.2775 20.3182Z" fill="#B8B8FF"/>
<path d="M5.61521 12.6596C6.43747 9.59137 9.59137 6.43747 12.6596 5.61521L31.7886 0.488839C34.8569 -0.333425 36.6777 1.48732 35.8554 4.55559L30.729 23.6846C29.9068 26.7528 26.7529 29.9067 23.6846 30.729L4.5556 35.8554C1.48733 36.6776 -0.333423 34.8569 0.488842 31.7886L5.61521 12.6596Z" fill="#5051F9"/>
</svg>
